<svg width="116" height="81" viewBox="0 0 116 81" fill="none" xmlns="http://www.w3.org/2000/svg">
<rect x="43.9325" y="0.243408" width="56.46" height="57.32" rx="10" transform="rotate(50 43.9325 0.243408)" fill="#6DC5D1"/>
<path d="M31.1719 31.7227H35.4199C37.2624 31.7227 38.6523 31.9896 39.5898 32.5234C40.5273 33.0573 40.9961 33.9785 40.9961 35.2871C40.9961 35.834 40.8984 36.3288 40.7031 36.7715C40.5143 37.2077 40.2376 37.569 39.873 37.8555C39.5085 38.1354 39.0592 38.3242 38.5254 38.4219V38.5195C39.0788 38.6172 39.5703 38.7897 40 39.0371C40.4362 39.2845 40.778 39.6393 41.0254 40.1016C41.2793 40.5638 41.4062 41.1628 41.4062 41.8984C41.4062 42.7708 41.1979 43.513 40.7812 44.125C40.3711 44.737 39.7819 45.2025 39.0137 45.5215C38.252 45.8405 37.347 46 36.2988 46H31.1719V31.7227ZM33.5156 37.6113H35.7617C36.8229 37.6113 37.5586 37.4388 37.9688 37.0938C38.3789 36.7487 38.584 36.2441 38.584 35.5801C38.584 34.903 38.3398 34.4147 37.8516 34.1152C37.3698 33.8158 36.6016 33.666 35.5469 33.666H33.5156V37.6113ZM33.5156 39.5059V44.0371H35.9863C37.0801 44.0371 37.8483 43.8255 38.291 43.4023C38.7337 42.9792 38.9551 42.4062 38.9551 41.6836C38.9551 41.2409 38.8542 40.8568 38.6523 40.5312C38.457 40.2057 38.1348 39.9551 37.6855 39.7793C37.2363 39.597 36.6309 39.5059 35.8691 39.5059H33.5156ZM49.5996 34.9844C49.7819 34.9844 49.9805 34.9941 50.1953 35.0137C50.4102 35.0332 50.5957 35.0592 50.752 35.0918L50.5371 37.2402C50.4004 37.2012 50.2311 37.1719 50.0293 37.1523C49.834 37.1328 49.6582 37.123 49.502 37.123C49.0918 37.123 48.7012 37.1914 48.3301 37.3281C47.959 37.4583 47.6302 37.6602 47.3438 37.9336C47.0573 38.2005 46.8327 38.5358 46.6699 38.9395C46.5072 39.3431 46.4258 39.8118 46.4258 40.3457V46H44.1211V35.1895H45.918L46.2305 37.0938H46.3379C46.5527 36.7096 46.8197 36.3581 47.1387 36.0391C47.4577 35.7201 47.8223 35.4661 48.2324 35.2773C48.6491 35.082 49.1048 34.9844 49.5996 34.9844ZM56.9922 34.9844C58.3594 34.9844 59.3913 35.2871 60.0879 35.8926C60.791 36.498 61.1426 37.4421 61.1426 38.7246V46H59.5117L59.0723 44.4668H58.9941C58.6882 44.8574 58.3724 45.1797 58.0469 45.4336C57.7214 45.6875 57.3438 45.8763 56.9141 46C56.4909 46.1302 55.9733 46.1953 55.3613 46.1953C54.7168 46.1953 54.1406 46.0781 53.6328 45.8438C53.125 45.6029 52.7246 45.2383 52.4316 44.75C52.1387 44.2617 51.9922 43.6432 51.9922 42.8945C51.9922 41.7812 52.4056 40.9447 53.2324 40.3848C54.0658 39.8249 55.3223 39.5156 57.002 39.457L58.877 39.3887V38.8223C58.877 38.0736 58.7012 37.5397 58.3496 37.2207C58.0046 36.9017 57.5163 36.7422 56.8848 36.7422C56.3444 36.7422 55.8203 36.8203 55.3125 36.9766C54.8047 37.1328 54.3099 37.3249 53.8281 37.5527L53.0859 35.9316C53.6133 35.6517 54.2122 35.4238 54.8828 35.248C55.5599 35.0723 56.263 34.9844 56.9922 34.9844ZM58.8672 40.834L57.4707 40.8828C56.3249 40.9219 55.5208 41.1172 55.0586 41.4688C54.5964 41.8203 54.3652 42.3021 54.3652 42.9141C54.3652 43.4479 54.5247 43.8385 54.8438 44.0859C55.1628 44.3268 55.5827 44.4473 56.1035 44.4473C56.8978 44.4473 57.5553 44.2227 58.0762 43.7734C58.6035 43.3177 58.8672 42.6504 58.8672 41.7715V40.834ZM66.6504 35.1895V46H64.3555V35.1895H66.6504ZM65.5176 31.0488C65.8691 31.0488 66.1719 31.1432 66.4258 31.332C66.6862 31.5208 66.8164 31.8464 66.8164 32.3086C66.8164 32.7643 66.6862 33.0898 66.4258 33.2852C66.1719 33.474 65.8691 33.5684 65.5176 33.5684C65.153 33.5684 64.8438 33.474 64.5898 33.2852C64.3424 33.0898 64.2188 32.7643 64.2188 32.3086C64.2188 31.8464 64.3424 31.5208 64.5898 31.332C64.8438 31.1432 65.153 31.0488 65.5176 31.0488ZM75.5762 34.9844C76.7936 34.9844 77.7409 35.3001 78.418 35.9316C79.1016 36.5566 79.4434 37.5625 79.4434 38.9492V46H77.1484V39.3789C77.1484 38.5391 76.9759 37.9108 76.6309 37.4941C76.2858 37.071 75.752 36.8594 75.0293 36.8594C73.9811 36.8594 73.252 37.1816 72.8418 37.8262C72.4382 38.4707 72.2363 39.4049 72.2363 40.6289V46H69.9414V35.1895H71.7285L72.0508 36.6543H72.1777C72.4121 36.2767 72.7018 35.9674 73.0469 35.7266C73.3984 35.4792 73.7891 35.2936 74.2188 35.1699C74.6549 35.0462 75.1074 34.9844 75.5762 34.9844ZM91.7383 46L90.3418 42.0352H84.8828L83.4863 46H81.0156L86.3281 31.6641H88.9258L94.2285 46H91.7383ZM89.7363 40.0234L88.3789 36.1172C88.3268 35.9479 88.252 35.7103 88.1543 35.4043C88.0566 35.0918 87.959 34.776 87.8613 34.457C87.7637 34.1315 87.6823 33.8581 87.6172 33.6367C87.5521 33.9036 87.4707 34.2031 87.373 34.5352C87.2819 34.8607 87.1908 35.1667 87.0996 35.4531C87.015 35.7396 86.9499 35.9609 86.9043 36.1172L85.5371 40.0234H89.7363ZM100.234 46.1953C99.2122 46.1953 98.3268 45.9967 97.5781 45.5996C96.8294 45.2025 96.2533 44.5938 95.8496 43.7734C95.446 42.9531 95.2441 41.9115 95.2441 40.6484C95.2441 39.3333 95.4655 38.2591 95.9082 37.4258C96.3509 36.5924 96.9629 35.9772 97.7441 35.5801C98.5319 35.1829 99.4336 34.9844 100.449 34.9844C101.094 34.9844 101.676 35.0495 102.197 35.1797C102.725 35.3034 103.171 35.4564 103.535 35.6387L102.852 37.4746C102.454 37.3118 102.048 37.1751 101.631 37.0645C101.214 36.9538 100.814 36.8984 100.43 36.8984C99.7982 36.8984 99.2708 37.0384 98.8477 37.3184C98.431 37.5983 98.1185 38.015 97.9102 38.5684C97.7083 39.1217 97.6074 39.8086 97.6074 40.6289C97.6074 41.4232 97.7116 42.0938 97.9199 42.6406C98.1283 43.181 98.4375 43.5911 98.8477 43.8711C99.2578 44.1445 99.7624 44.2812 100.361 44.2812C100.954 44.2812 101.484 44.2096 101.953 44.0664C102.422 43.9232 102.865 43.7376 103.281 43.5098V45.502C102.871 45.7363 102.432 45.9089 101.963 46.0195C101.494 46.1367 100.918 46.1953 100.234 46.1953ZM110.127 34.9844C111.09 34.9844 111.917 35.1829 112.607 35.5801C113.298 35.9772 113.828 36.5404 114.199 37.2695C114.57 37.9987 114.756 38.8711 114.756 39.8867V41.1172H107.539C107.565 42.1654 107.845 42.9727 108.379 43.5391C108.919 44.1055 109.674 44.3887 110.645 44.3887C111.335 44.3887 111.953 44.3236 112.5 44.1934C113.053 44.0566 113.623 43.8581 114.209 43.5977V45.4629C113.669 45.7168 113.118 45.9023 112.559 46.0195C111.999 46.1367 111.328 46.1953 110.547 46.1953C109.486 46.1953 108.551 45.9902 107.744 45.5801C106.943 45.1634 106.315 44.5449 105.859 43.7246C105.41 42.9043 105.186 41.8854 105.186 40.668C105.186 39.457 105.391 38.4284 105.801 37.582C106.211 36.7357 106.787 36.0911 107.529 35.6484C108.271 35.2057 109.137 34.9844 110.127 34.9844ZM110.127 36.7129C109.404 36.7129 108.818 36.9473 108.369 37.416C107.926 37.8848 107.666 38.5716 107.588 39.4766H112.51C112.503 38.9362 112.412 38.4577 112.236 38.041C112.067 37.6243 111.807 37.2988 111.455 37.0645C111.11 36.8301 110.667 36.7129 110.127 36.7129Z" fill="black"/>
</svg>
