<svg width="98" height="135" viewBox="0 0 98 135" fill="none" xmlns="http://www.w3.org/2000/svg">
<g filter="url(#filter0_d_7_76)">
<g filter="url(#filter1_b_7_76)">
<rect x="8" y="8" width="82" height="119" rx="15" fill="white" fill-opacity="0.74"/>
<rect x="8.5" y="8.5" width="81" height="118" rx="14.5" stroke="white" stroke-opacity="0.1"/>
</g>
<path d="M20.665 108.421C20.665 108.971 20.5951 109.472 20.4551 109.925C20.3151 110.374 20.1068 110.761 19.8301 111.087C19.5566 111.409 19.2165 111.658 18.8096 111.834C18.4027 112.01 17.9307 112.098 17.3936 112.098C16.8402 112.098 16.3568 112.01 15.9434 111.834C15.5332 111.658 15.1914 111.408 14.918 111.082C14.6478 110.757 14.4443 110.368 14.3076 109.915C14.1742 109.463 14.1074 108.961 14.1074 108.411C14.1074 107.682 14.2279 107.042 14.4688 106.492C14.7096 105.942 15.0742 105.514 15.5625 105.208C16.054 104.902 16.6693 104.749 17.4082 104.749C18.1146 104.749 18.7087 104.9 19.1904 105.203C19.6755 105.506 20.0417 105.932 20.2891 106.482C20.5397 107.029 20.665 107.675 20.665 108.421ZM14.9814 108.421C14.9814 109.026 15.0677 109.55 15.2402 109.993C15.4128 110.436 15.6764 110.778 16.0312 111.019C16.3893 111.259 16.8434 111.38 17.3936 111.38C17.9469 111.38 18.3994 111.259 18.751 111.019C19.1058 110.778 19.3678 110.436 19.5371 109.993C19.7064 109.55 19.791 109.026 19.791 108.421C19.791 107.5 19.5973 106.78 19.21 106.263C18.8258 105.742 18.2253 105.481 17.4082 105.481C16.8548 105.481 16.3991 105.6 16.041 105.838C15.6829 106.076 15.416 106.414 15.2402 106.854C15.0677 107.29 14.9814 107.812 14.9814 108.421ZM24.6689 106.551C25.3037 106.551 25.7839 106.707 26.1094 107.02C26.4349 107.329 26.5977 107.827 26.5977 108.514V112H25.7969V108.567C25.7969 108.121 25.6943 107.788 25.4893 107.566C25.2874 107.345 24.9766 107.234 24.5566 107.234C23.9642 107.234 23.5475 107.402 23.3066 107.737C23.0658 108.073 22.9453 108.559 22.9453 109.197V112H22.1348V106.648H22.7891L22.9111 107.42H22.9551C23.069 107.231 23.2139 107.073 23.3896 106.946C23.5654 106.816 23.7624 106.718 23.9805 106.653C24.1986 106.585 24.4281 106.551 24.6689 106.551ZM29.083 112H28.2676V104.402H29.083V112ZM31.6074 106.648V112H30.7969V106.648H31.6074ZM31.2119 104.646C31.3454 104.646 31.4593 104.69 31.5537 104.778C31.6514 104.863 31.7002 104.996 31.7002 105.179C31.7002 105.358 31.6514 105.491 31.5537 105.579C31.4593 105.667 31.3454 105.711 31.2119 105.711C31.0719 105.711 30.9548 105.667 30.8604 105.579C30.7692 105.491 30.7236 105.358 30.7236 105.179C30.7236 104.996 30.7692 104.863 30.8604 104.778C30.9548 104.69 31.0719 104.646 31.2119 104.646ZM35.8604 106.551C36.4951 106.551 36.9753 106.707 37.3008 107.02C37.6263 107.329 37.7891 107.827 37.7891 108.514V112H36.9883V108.567C36.9883 108.121 36.8857 107.788 36.6807 107.566C36.4788 107.345 36.168 107.234 35.748 107.234C35.1556 107.234 34.7389 107.402 34.498 107.737C34.2572 108.073 34.1367 108.559 34.1367 109.197V112H33.3262V106.648H33.9805L34.1025 107.42H34.1465C34.2604 107.231 34.4053 107.073 34.5811 106.946C34.7568 106.816 34.9538 106.718 35.1719 106.653C35.39 106.585 35.6195 106.551 35.8604 106.551ZM41.5195 106.551C41.9753 106.551 42.3659 106.652 42.6914 106.854C43.0169 107.055 43.266 107.339 43.4385 107.703C43.611 108.064 43.6973 108.488 43.6973 108.973V109.476H40.001C40.0107 110.104 40.167 110.582 40.4697 110.911C40.7725 111.24 41.1989 111.404 41.749 111.404C42.0876 111.404 42.387 111.373 42.6475 111.312C42.9079 111.25 43.1781 111.159 43.458 111.038V111.751C43.1878 111.871 42.9193 111.959 42.6523 112.015C42.3887 112.07 42.0762 112.098 41.7148 112.098C41.2005 112.098 40.7513 111.993 40.3672 111.785C39.9863 111.574 39.6901 111.264 39.4785 110.857C39.2669 110.451 39.1611 109.952 39.1611 109.363C39.1611 108.787 39.2572 108.289 39.4492 107.869C39.6445 107.446 39.918 107.12 40.2695 106.893C40.6243 106.665 41.041 106.551 41.5195 106.551ZM41.5098 107.215C41.0768 107.215 40.7318 107.356 40.4746 107.64C40.2174 107.923 40.0645 108.318 40.0156 108.826H42.8477C42.8444 108.507 42.7939 108.227 42.6963 107.986C42.6019 107.742 42.457 107.553 42.2617 107.42C42.0664 107.283 41.8158 107.215 41.5098 107.215ZM50.8457 105.491C50.4518 105.491 50.097 105.56 49.7812 105.696C49.4688 105.83 49.2018 106.025 48.9805 106.282C48.7624 106.536 48.5947 106.844 48.4775 107.205C48.3604 107.566 48.3018 107.973 48.3018 108.426C48.3018 109.025 48.3945 109.546 48.5801 109.988C48.7689 110.428 49.0488 110.768 49.4199 111.009C49.7943 111.25 50.2614 111.37 50.8213 111.37C51.1403 111.37 51.4398 111.344 51.7197 111.292C52.0029 111.237 52.278 111.168 52.5449 111.087V111.81C52.2845 111.907 52.0111 111.979 51.7246 112.024C51.4382 112.073 51.098 112.098 50.7041 112.098C49.9782 112.098 49.3711 111.948 48.8828 111.648C48.3978 111.346 48.0332 110.919 47.7891 110.369C47.5482 109.819 47.4277 109.17 47.4277 108.421C47.4277 107.881 47.5026 107.387 47.6523 106.941C47.8053 106.492 48.0267 106.105 48.3164 105.779C48.6094 105.454 48.9674 105.203 49.3906 105.027C49.8171 104.848 50.3053 104.759 50.8555 104.759C51.2168 104.759 51.5651 104.795 51.9004 104.866C52.2357 104.938 52.5384 105.04 52.8086 105.174L52.4766 105.877C52.2487 105.773 51.998 105.683 51.7246 105.608C51.4544 105.53 51.1615 105.491 50.8457 105.491ZM58.585 109.314C58.585 109.754 58.528 110.146 58.4141 110.491C58.3001 110.836 58.1357 111.128 57.9209 111.365C57.7061 111.603 57.4456 111.785 57.1396 111.912C56.8369 112.036 56.4935 112.098 56.1094 112.098C55.7513 112.098 55.4225 112.036 55.123 111.912C54.8268 111.785 54.5697 111.603 54.3516 111.365C54.1367 111.128 53.9691 110.836 53.8486 110.491C53.7314 110.146 53.6729 109.754 53.6729 109.314C53.6729 108.729 53.7721 108.23 53.9707 107.82C54.1693 107.407 54.4525 107.093 54.8203 106.878C55.1914 106.66 55.6325 106.551 56.1436 106.551C56.6318 106.551 57.0583 106.66 57.4229 106.878C57.7907 107.096 58.0755 107.412 58.2773 107.825C58.4824 108.235 58.585 108.732 58.585 109.314ZM54.5127 109.314C54.5127 109.744 54.5697 110.117 54.6836 110.433C54.7975 110.748 54.9733 110.993 55.2109 111.165C55.4486 111.338 55.7546 111.424 56.1289 111.424C56.5 111.424 56.8044 111.338 57.042 111.165C57.2829 110.993 57.4603 110.748 57.5742 110.433C57.6882 110.117 57.7451 109.744 57.7451 109.314C57.7451 108.888 57.6882 108.52 57.5742 108.211C57.4603 107.898 57.2845 107.658 57.0469 107.488C56.8092 107.319 56.5016 107.234 56.124 107.234C55.5674 107.234 55.1589 107.418 54.8984 107.786C54.6413 108.154 54.5127 108.663 54.5127 109.314ZM64.4053 106.648V112H63.7412L63.624 111.248H63.5801C63.4694 111.434 63.3262 111.59 63.1504 111.717C62.9746 111.844 62.776 111.938 62.5547 112C62.3366 112.065 62.1038 112.098 61.8564 112.098C61.4333 112.098 61.0785 112.029 60.792 111.893C60.5055 111.756 60.2891 111.544 60.1426 111.258C59.9993 110.971 59.9277 110.604 59.9277 110.154V106.648H60.748V110.096C60.748 110.542 60.849 110.875 61.0508 111.097C61.2526 111.315 61.5602 111.424 61.9736 111.424C62.3708 111.424 62.6865 111.349 62.9209 111.199C63.1585 111.049 63.3294 110.83 63.4336 110.54C63.5378 110.247 63.5898 109.889 63.5898 109.466V106.648H64.4053ZM68.5508 106.551C68.6582 106.551 68.7705 106.557 68.8877 106.57C69.0049 106.58 69.109 106.595 69.2002 106.614L69.0977 107.366C69.0098 107.343 68.9121 107.326 68.8047 107.312C68.6973 107.299 68.5964 107.293 68.502 107.293C68.2871 107.293 68.0837 107.337 67.8916 107.425C67.7028 107.509 67.5368 107.633 67.3936 107.796C67.2503 107.955 67.138 108.149 67.0566 108.377C66.9753 108.602 66.9346 108.852 66.9346 109.129V112H66.1191V106.648H66.793L66.8809 107.635H66.915C67.0257 107.436 67.1592 107.256 67.3154 107.093C67.4717 106.927 67.6523 106.795 67.8574 106.697C68.0658 106.6 68.2969 106.551 68.5508 106.551ZM73.6729 110.535C73.6729 110.877 73.5866 111.165 73.4141 111.399C73.2448 111.631 73.0007 111.805 72.6816 111.922C72.3659 112.039 71.9883 112.098 71.5488 112.098C71.1745 112.098 70.8506 112.068 70.5771 112.01C70.3037 111.951 70.0645 111.868 69.8594 111.761V111.014C70.0775 111.121 70.3379 111.219 70.6406 111.307C70.9434 111.395 71.2526 111.438 71.5684 111.438C72.0306 111.438 72.3659 111.364 72.5742 111.214C72.7826 111.064 72.8867 110.861 72.8867 110.604C72.8867 110.457 72.8444 110.328 72.7598 110.218C72.6784 110.104 72.54 109.995 72.3447 109.891C72.1494 109.783 71.8792 109.666 71.5342 109.539C71.1924 109.409 70.8962 109.28 70.6455 109.153C70.3981 109.023 70.2061 108.865 70.0693 108.68C69.9359 108.494 69.8691 108.253 69.8691 107.957C69.8691 107.505 70.0514 107.158 70.416 106.917C70.7839 106.673 71.2656 106.551 71.8613 106.551C72.1836 106.551 72.4847 106.583 72.7646 106.648C73.0479 106.71 73.3115 106.795 73.5557 106.902L73.2822 107.552C73.0609 107.457 72.8249 107.378 72.5742 107.312C72.3236 107.247 72.068 107.215 71.8076 107.215C71.4333 107.215 71.1452 107.277 70.9434 107.4C70.7448 107.524 70.6455 107.693 70.6455 107.908C70.6455 108.074 70.6911 108.211 70.7822 108.318C70.8766 108.426 71.0264 108.527 71.2314 108.621C71.4365 108.715 71.7067 108.826 72.042 108.953C72.3773 109.077 72.667 109.205 72.9111 109.339C73.1553 109.469 73.3424 109.629 73.4727 109.817C73.6061 110.003 73.6729 110.242 73.6729 110.535ZM77.0371 106.551C77.4928 106.551 77.8835 106.652 78.209 106.854C78.5345 107.055 78.7835 107.339 78.9561 107.703C79.1286 108.064 79.2148 108.488 79.2148 108.973V109.476H75.5186C75.5283 110.104 75.6846 110.582 75.9873 110.911C76.29 111.24 76.7165 111.404 77.2666 111.404C77.6051 111.404 77.9046 111.373 78.165 111.312C78.4255 111.25 78.6956 111.159 78.9756 111.038V111.751C78.7054 111.871 78.4368 111.959 78.1699 112.015C77.9062 112.07 77.5938 112.098 77.2324 112.098C76.7181 112.098 76.2689 111.993 75.8848 111.785C75.5039 111.574 75.2077 111.264 74.9961 110.857C74.7845 110.451 74.6787 109.952 74.6787 109.363C74.6787 108.787 74.7747 108.289 74.9668 107.869C75.1621 107.446 75.4355 107.12 75.7871 106.893C76.1419 106.665 76.5586 106.551 77.0371 106.551ZM77.0273 107.215C76.5944 107.215 76.2493 107.356 75.9922 107.64C75.735 107.923 75.582 108.318 75.5332 108.826H78.3652C78.362 108.507 78.3115 108.227 78.2139 107.986C78.1195 107.742 77.9746 107.553 77.7793 107.42C77.584 107.283 77.3333 107.215 77.0273 107.215ZM84.0537 110.535C84.0537 110.877 83.9674 111.165 83.7949 111.399C83.6257 111.631 83.3815 111.805 83.0625 111.922C82.7467 112.039 82.3691 112.098 81.9297 112.098C81.5553 112.098 81.2314 112.068 80.958 112.01C80.6846 111.951 80.4453 111.868 80.2402 111.761V111.014C80.4583 111.121 80.7188 111.219 81.0215 111.307C81.3242 111.395 81.6335 111.438 81.9492 111.438C82.4115 111.438 82.7467 111.364 82.9551 111.214C83.1634 111.064 83.2676 110.861 83.2676 110.604C83.2676 110.457 83.2253 110.328 83.1406 110.218C83.0592 110.104 82.9209 109.995 82.7256 109.891C82.5303 109.783 82.2601 109.666 81.915 109.539C81.5732 109.409 81.277 109.28 81.0264 109.153C80.779 109.023 80.5869 108.865 80.4502 108.68C80.3167 108.494 80.25 108.253 80.25 107.957C80.25 107.505 80.4323 107.158 80.7969 106.917C81.1647 106.673 81.6465 106.551 82.2422 106.551C82.5645 106.551 82.8656 106.583 83.1455 106.648C83.4287 106.71 83.6924 106.795 83.9365 106.902L83.6631 107.552C83.4417 107.457 83.2057 107.378 82.9551 107.312C82.7044 107.247 82.4489 107.215 82.1885 107.215C81.8141 107.215 81.526 107.277 81.3242 107.4C81.1257 107.524 81.0264 107.693 81.0264 107.908C81.0264 108.074 81.0719 108.211 81.1631 108.318C81.2575 108.426 81.4072 108.527 81.6123 108.621C81.8174 108.715 82.0876 108.826 82.4229 108.953C82.7581 109.077 83.0479 109.205 83.292 109.339C83.5361 109.469 83.7233 109.629 83.8535 109.817C83.987 110.003 84.0537 110.242 84.0537 110.535Z" fill="black"/>
</g>
<path d="M76 48.5C76 63.6878 63.6878 76 48.5 76C33.3122 76 21 63.6878 21 48.5C21 33.3122 33.3122 21 48.5 21C63.6878 21 76 33.3122 76 48.5ZM26.5 48.5C26.5 60.6503 36.3497 70.5 48.5 70.5C60.6503 70.5 70.5 60.6503 70.5 48.5C70.5 36.3497 60.6503 26.5 48.5 26.5C36.3497 26.5 26.5 36.3497 26.5 48.5Z" fill="#D9D9D9"/>
<path d="M54.7937 75.2701C61.4313 73.7096 67.2525 69.7388 71.1275 64.1283C75.0026 58.5179 76.6551 51.6679 75.7644 44.9077C74.8736 38.1475 71.5032 31.9593 66.3072 27.544C61.1112 23.1287 54.4601 20.8013 47.6448 21.0133L47.8159 26.5106C53.2681 26.341 58.589 28.203 62.7458 31.7352C66.9026 35.2674 69.5989 40.218 70.3115 45.6261C71.0241 51.0343 69.702 56.5143 66.602 61.0027C63.502 65.4911 58.845 68.6677 53.5349 69.9161L54.7937 75.2701Z" fill="#008DDA"/>
<path d="M40.1973 90.6152C40.8079 90.6152 41.3503 90.7314 41.8242 90.9639C42.3027 91.1963 42.6787 91.5381 42.9521 91.9893C43.2256 92.4404 43.3623 92.9964 43.3623 93.6572C43.3623 94.3773 43.2119 94.9993 42.9111 95.5234C42.6149 96.043 42.1706 96.4417 41.5781 96.7197C40.9902 96.9977 40.2565 97.1367 39.377 97.1367C38.8529 97.1367 38.3584 97.0911 37.8936 97C37.4333 96.9134 37.0299 96.779 36.6836 96.5967V94.7715C37.0299 94.9538 37.4447 95.1087 37.9277 95.2363C38.4154 95.3594 38.8734 95.4209 39.3018 95.4209C39.721 95.4209 40.0742 95.3662 40.3613 95.2568C40.6484 95.1429 40.8649 94.9697 41.0107 94.7373C41.1611 94.5003 41.2363 94.1995 41.2363 93.835C41.2363 93.3473 41.0723 92.9736 40.7441 92.7139C40.416 92.4541 39.9124 92.3242 39.2334 92.3242C38.9736 92.3242 38.7025 92.3493 38.4199 92.3994C38.1419 92.4495 37.9095 92.4997 37.7227 92.5498L36.8818 92.0986L37.2578 87.0059H42.6787V88.7969H39.1104L38.9258 90.7588C39.0807 90.7269 39.2493 90.695 39.4316 90.6631C39.6139 90.6312 39.8691 90.6152 40.1973 90.6152ZM53.3086 97H50.9023L48.2842 92.7891L47.3887 93.4316V97H45.2695V87.0059H47.3887V91.5791C47.5299 91.3831 47.6689 91.1872 47.8057 90.9912C47.9424 90.7952 48.0814 90.5993 48.2227 90.4033L50.9297 87.0059H53.2812L49.7949 91.4287L53.3086 97ZM58.0527 91.3193H60.6982V92.8164H58.0527V95.4482H56.5557V92.8164H53.9102V91.3193H56.5557V88.6533H58.0527V91.3193Z" fill="black"/>
<defs>
<filter id="filter0_d_7_76" x="0" y="0" width="98" height="135" filterUnits="userSpaceOnUse" color-interpolation-filters="sRGB">
<feFlood flood-opacity="0" result="BackgroundImageFix"/>
<feColorMatrix in="SourceAlpha" type="matrix" values="0 0 0 0 0 0 0 0 0 0 0 0 0 0 0 0 0 0 127 0" result="hardAlpha"/>
<feOffset/>
<feGaussianBlur stdDeviation="4"/>
<feComposite in2="hardAlpha" operator="out"/>
<feColorMatrix type="matrix" values="0 0 0 0 0 0 0 0 0 0 0 0 0 0 0 0 0 0 0.1 0"/>
<feBlend mode="normal" in2="BackgroundImageFix" result="effect1_dropShadow_7_76"/>
<feBlend mode="normal" in="SourceGraphic" in2="effect1_dropShadow_7_76" result="shape"/>
</filter>
<filter id="filter1_b_7_76" x="-40.6" y="-40.6" width="179.2" height="216.2" filterUnits="userSpaceOnUse" color-interpolation-filters="sRGB">
<feFlood flood-opacity="0" result="BackgroundImageFix"/>
<feGaussianBlur in="BackgroundImageFix" stdDeviation="24.3"/>
<feComposite in2="SourceAlpha" operator="in" result="effect1_backgroundBlur_7_76"/>
<feBlend mode="normal" in="SourceGraphic" in2="effect1_backgroundBlur_7_76" result="shape"/>
</filter>
</defs>
</svg>
