<svg width="1294" height="829" viewBox="0 0 1294 829" fill="none" xmlns="http://www.w3.org/2000/svg">
<path d="M2253.9 -81.9378C2269.86 -82.5217 2283.77 -70.8906 2284.89 -54.9633C2293.86 72.1528 2248.36 198.837 2151.46 315.751C2047.43 441.25 1887.23 551.805 1684.37 638.08C1481.51 724.354 1241.96 783.814 985.948 811.438C729.935 839.062 464.978 834.038 213.456 796.791C-38.0668 759.544 -268.768 691.167 -459.163 597.436C-649.558 503.705 -794.056 387.373 -880.452 258.264C-966.848 129.155 -992.605 -8.93921 -955.548 -144.355C-919.593 -275.742 -825.53 -400.864 -680.978 -509.788C-672.64 -516.071 -661.653 -517.554 -651.876 -513.891L651.19 -25.6768C655.025 -24.2398 659.107 -23.5771 663.2 -23.7269L2253.9 -81.9378Z" fill="#FFF3DA"/>
</svg>
